<?xml version="1.0" encoding="UTF-8"?>
<svg version="1.1" xmlns="http://www.w3.org/2000/svg" width="512" height="512">
<path d="M0 0 C8.25 0 16.5 0 25 0 C25 24.09 25 48.18 25 73 C54.7 73 84.4 73 115 73 C115 107.32 115 141.64 115 177 C106.75 177 98.5 177 90 177 C88.31496301 175.31496301 88.88034017 173.23740116 88.87557983 170.98905945 C88.87917511 170.27264786 88.88277039 169.55623627 88.88647461 168.81811523 C88.88632858 168.06694427 88.88618256 167.31577332 88.8860321 166.5418396 C88.88673137 164.04739541 88.89452436 161.55302497 88.90234375 159.05859375 C88.90420788 157.33366436 88.90563181 155.60873443 88.90663147 153.88380432 C88.91045703 149.33487497 88.92028762 144.78597733 88.93133545 140.23706055 C88.94334319 134.78388372 88.94795163 129.33069632 88.95378876 123.87751007 C88.96349937 115.58498462 88.98265565 107.29252884 89 99 C67.88 99 46.76 99 25 99 C25 138.93 25 178.86 25 220 C50.74 220 76.48 220 103 220 C103 254.32 103 288.64 103 324 C94.42 324 85.84 324 77 324 C77 298.26 77 272.52 77 246 C59.84 246 42.68 246 25 246 C25 318.27 25 390.54 25 465 C16.75 465 8.5 465 0 465 C-1 464 -1 464 -1.1241985 461.96501678 C-1.12362892 460.60770646 -1.12362892 460.60770646 -1.12304783 459.22297573 C-1.12503888 458.1829328 -1.12702993 457.14288987 -1.12908131 456.07133049 C-1.12616847 454.91474074 -1.12325563 453.75815099 -1.12025452 452.56651306 C-1.12153615 450.73988352 -1.12153615 450.73988352 -1.12284368 448.87635237 C-1.12421191 445.48092147 -1.12106428 442.08554749 -1.11606562 438.69012344 C-1.11176455 435.03434679 -1.1132073 431.37857204 -1.1139679 427.72279358 C-1.11449335 421.38381975 -1.11134432 415.04485618 -1.10573006 408.70588493 C-1.09761795 399.54069156 -1.09500013 390.37550317 -1.09374207 381.21030659 C-1.09155109 366.34194312 -1.08488977 351.47358511 -1.07543945 336.60522461 C-1.06626651 322.15828478 -1.0591851 307.71134644 -1.05493164 293.2644043 C-1.05466892 292.37454234 -1.05440619 291.48468038 -1.05413551 290.56785291 C-1.05283051 286.10387032 -1.05156679 281.63988772 -1.05032361 277.17590511 C-1.03994957 240.11726521 -1.02151051 203.05863543 -1 166 C-36.97 166 -72.94 166 -110 166 C-110 191.74 -110 217.48 -110 244 C-118.58 244 -127.16 244 -136 244 C-136 209.68 -136 175.36 -136 140 C-91.45 140 -46.9 140 -1 140 C-1.01160156 129.97753906 -1.02320313 119.95507812 -1.03515625 109.62890625 C-1.04026269 103.29882787 -1.04511769 96.96875097 -1.04882812 90.63867188 C-1.0547713 80.57999158 -1.06177348 70.52131964 -1.07543945 60.46264648 C-1.08538575 53.13832068 -1.0918533 45.81400163 -1.09408849 38.48966926 C-1.09539569 34.60909213 -1.09848212 30.7285343 -1.10573006 26.84796333 C-1.11248942 23.19960443 -1.11461713 19.55127289 -1.11310768 15.90290833 C-1.11351637 13.91711581 -1.118912 11.9313263 -1.12442017 9.94554138 C-1.1230455 8.7745993 -1.12167084 7.60365723 -1.12025452 6.39723206 C-1.12163721 4.86106405 -1.12163721 4.86106405 -1.12304783 3.29386234 C-1 1 -1 1 0 0 Z " fill="#CCCCCC" transform="translate(245,30)"/>
</svg>
